<svg width="59" height="59" viewBox="0 0 59 59" fill="none" xmlns="http://www.w3.org/2000/svg">
<circle cx="29.5" cy="29.5" r="28.5" stroke="#B3B3B3" stroke-width="2"/>
<path d="M29.8067 32.9885C24.2309 32.9885 19.5264 33.8051 19.5264 36.9568C19.5264 40.1098 24.2613 40.8977 29.8067 40.8977C35.3824 40.8977 40.087 40.0811 40.087 36.9294C40.087 33.7764 35.352 32.9885 29.8067 32.9885Z" fill="#B3B3B3"/>
<path opacity="0.4" d="M29.8068 29.9856C33.5823 29.9856 36.6097 27.2566 36.6097 23.8531C36.6097 20.4484 33.5823 17.7207 29.8068 17.7207C26.0313 17.7207 23.0039 20.4484 23.0039 23.8531C23.0039 27.2566 26.0313 29.9856 29.8068 29.9856Z" fill="#B3B3B3"/>
<path opacity="0.4" d="M44.5768 25.281C45.5536 21.8371 42.6897 18.7441 39.043 18.7441C38.6465 18.7441 38.2673 18.7833 37.8969 18.8498C37.8477 18.8602 37.7927 18.8824 37.7638 18.9216C37.7305 18.9711 37.7551 19.0377 37.7912 19.0807C38.8867 20.4661 39.5162 22.1528 39.5162 23.9634C39.5162 25.6984 38.9388 27.316 37.9258 28.6583C37.8216 28.7966 37.9143 28.9831 38.098 29.0118C38.3527 29.0523 38.6132 29.0731 38.8795 29.0797C41.5349 29.1423 43.9183 27.6017 44.5768 25.281Z" fill="#B3B3B3"/>
<path d="M47.3588 33.3897C46.8726 32.4557 45.699 31.8152 43.9147 31.5008C43.0725 31.3156 40.7932 31.0547 38.6732 31.0899C38.6414 31.0938 38.624 31.1134 38.6211 31.1264C38.6168 31.1447 38.6255 31.176 38.6674 31.1956C39.6471 31.6326 43.4342 33.5332 42.9581 37.5419C42.9379 37.7154 43.0927 37.8654 43.2852 37.8394C44.2171 37.7193 46.615 37.2549 47.3588 35.8083C47.7698 35.0438 47.7698 34.1555 47.3588 33.3897Z" fill="#B3B3B3"/>
<path opacity="0.4" d="M21.8809 18.85C21.5119 18.7822 21.1313 18.7444 20.7348 18.7444C17.088 18.7444 14.2242 21.8373 15.2024 25.2812C15.8594 27.6019 18.2428 29.1425 20.8983 29.0799C21.1646 29.0734 21.4265 29.0512 21.6797 29.0121C21.8635 28.9834 21.9561 28.7968 21.8519 28.6585C20.839 27.3149 20.2616 25.6986 20.2616 23.9637C20.2616 22.1517 20.8925 20.465 21.988 19.0809C22.0227 19.0379 22.0487 18.9714 22.014 18.9218C21.9851 18.8814 21.9315 18.8605 21.8809 18.85Z" fill="#B3B3B3"/>
<path d="M15.8633 31.5005C14.079 31.8149 12.9069 32.4554 12.4206 33.3894C12.0082 34.1551 12.0082 35.0435 12.4206 35.8092C13.1645 37.2546 15.5623 37.7203 16.4943 37.839C16.6867 37.8651 16.8401 37.7164 16.8199 37.5416C16.3438 33.5342 20.1309 31.6335 21.112 31.1965C21.1525 31.1756 21.1612 31.1456 21.1569 31.1261C21.154 31.113 21.1381 31.0935 21.1062 31.0909C18.9848 31.0543 16.707 31.3152 15.8633 31.5005Z" fill="#B3B3B3"/>
</svg>
