<svg width="10" height="12" viewBox="0 0 10 12" fill="none" xmlns="http://www.w3.org/2000/svg">
<path d="M8.125 4.2H3.125V3C3.125 2.52 3.3125 2.1 3.6875 1.74C4.4375 1.02 5.625 1.02 6.3125 1.74C6.5625 1.98 6.6875 2.28 6.8125 2.58C6.875 2.88 7.25 3.06 7.5625 3C7.875 2.94 8.125 2.58 8 2.28C7.875 1.74 7.5625 1.26 7.1875 0.9C6.625 0.3 5.8125 0 5 0C3.25 0 1.875 1.32 1.875 3V4.2C0.8125 4.2 0 4.98 0 6V10.2C0 11.22 0.8125 12 1.875 12H8.125C9.1875 12 10 11.22 10 10.2V6C10 4.98 9.1875 4.2 8.125 4.2Z" fill="#838693"/>
</svg>
