<svg width="25" height="22" viewBox="0 0 25 22" fill="none" xmlns="http://www.w3.org/2000/svg">
<path fill-rule="evenodd" clip-rule="evenodd" d="M10.8332 1.66316L10.2058 1.14251C9.31031 0.399065 8.24037 -0.000115365 7.14344 2.50097e-08H6.37848C5.87226 2.50097e-08 5.36229 0.0366656 4.88607 0.234661C1.90749 1.47543 -0.14114 6.00585 0.00760116 16.284C0.0375994 18.3549 0.450075 20.6428 2.04248 21.536C2.58569 21.8424 3.1809 22.0009 3.78363 21.9995C4.46109 22.0125 5.12662 21.7894 5.69602 21.3585C6.20849 20.9655 6.65846 20.4551 7.10844 19.9447C7.66341 19.3141 8.21837 18.6834 8.88833 18.2757C9.61826 17.8315 10.4285 17.5996 11.2507 17.5996H13.7493C14.5718 17.5996 15.3817 17.8313 16.1117 18.2742C16.7816 18.6834 17.3366 19.3141 17.8928 19.9447C18.3428 20.4551 18.7928 20.9655 19.3027 21.3585C19.7902 21.734 20.4214 21.9995 21.2164 21.9995C21.8191 22.0009 22.4143 21.8424 22.9575 21.536C24.5499 20.6428 24.9624 18.3534 24.9924 16.284C25.1411 6.00585 23.0925 1.47543 20.1139 0.236127C19.6365 0.0366654 19.124 2.50097e-08 18.6203 2.50097e-08H17.8553C16.7582 0.00021688 15.6882 0.399924 14.793 1.14397L14.1655 1.66316C13.6783 2.06761 13.0962 2.28481 12.4994 2.28481C11.9026 2.28481 11.3204 2.06761 10.8332 1.66316ZM18.4365 5.86652C18.6852 5.86652 18.9236 5.98241 19.0994 6.1887C19.2752 6.39498 19.374 6.67476 19.374 6.9665C19.374 7.25823 19.2752 7.53801 19.0994 7.74429C18.9236 7.95058 18.6852 8.06647 18.4365 8.06647C18.1879 8.06647 17.9495 7.95058 17.7737 7.74429C17.5978 7.53801 17.4991 7.25823 17.4991 6.9665C17.4991 6.67476 17.5978 6.39498 17.7737 6.1887C17.9495 5.98241 18.1879 5.86652 18.4365 5.86652ZM6.8747 6.23318C7.12333 6.23318 7.36177 6.34907 7.53757 6.55536C7.71338 6.76164 7.81215 7.04142 7.81215 7.33315V8.43313H8.74959C8.99822 8.43313 9.23666 8.54902 9.41247 8.7553C9.58827 8.96159 9.68704 9.24137 9.68704 9.5331C9.68704 9.82483 9.58827 10.1046 9.41247 10.3109C9.23666 10.5172 8.99822 10.6331 8.74959 10.6331H7.81215V11.733C7.81215 12.0248 7.71338 12.3046 7.53757 12.5108C7.36177 12.7171 7.12333 12.833 6.8747 12.833C6.62608 12.833 6.38763 12.7171 6.21183 12.5108C6.03602 12.3046 5.93726 12.0248 5.93726 11.733V10.6331H4.99981C4.75118 10.6331 4.51274 10.5172 4.33694 10.3109C4.16113 10.1046 4.06237 9.82483 4.06237 9.5331C4.06237 9.24137 4.16113 8.96159 4.33694 8.7553C4.51274 8.54902 4.75118 8.43313 4.99981 8.43313H5.93726V7.33315C5.93726 7.04142 6.03602 6.76164 6.21183 6.55536C6.38763 6.34907 6.62608 6.23318 6.8747 6.23318ZM21.2489 9.16644C21.2489 9.45817 21.1501 9.73796 20.9743 9.94424C20.7985 10.1505 20.56 10.2664 20.3114 10.2664C20.0628 10.2664 19.8244 10.1505 19.6485 9.94424C19.4727 9.73796 19.374 9.45817 19.374 9.16644C19.374 8.87471 19.4727 8.59493 19.6485 8.38864C19.8244 8.18236 20.0628 8.06647 20.3114 8.06647C20.56 8.06647 20.7985 8.18236 20.9743 8.38864C21.1501 8.59493 21.2489 8.87471 21.2489 9.16644ZM16.5616 10.2664C16.8103 10.2664 17.0487 10.1505 17.2245 9.94424C17.4003 9.73796 17.4991 9.45817 17.4991 9.16644C17.4991 8.87471 17.4003 8.59493 17.2245 8.38864C17.0487 8.18236 16.8103 8.06647 16.5616 8.06647C16.313 8.06647 16.0746 8.18236 15.8988 8.38864C15.723 8.59493 15.6242 8.87471 15.6242 9.16644C15.6242 9.45817 15.723 9.73796 15.8988 9.94424C16.0746 10.1505 16.313 10.2664 16.5616 10.2664ZM19.374 11.3664C19.374 11.0747 19.2752 10.7949 19.0994 10.5886C18.9236 10.3823 18.6852 10.2664 18.4365 10.2664C18.1879 10.2664 17.9495 10.3823 17.7737 10.5886C17.5978 10.7949 17.4991 11.0747 17.4991 11.3664C17.4991 11.6581 17.5978 11.9379 17.7737 12.1442C17.9495 12.3505 18.1879 12.4664 18.4365 12.4664C18.6852 12.4664 18.9236 12.3505 19.0994 12.1442C19.2752 11.9379 19.374 11.6581 19.374 11.3664Z" fill="white"/>
</svg>
