<svg width="22" height="23" viewBox="0 0 22 23" fill="none" xmlns="http://www.w3.org/2000/svg">
<path d="M19.2736 12.6385L19.2625 12.6615C19.307 12.282 19.3515 11.891 19.3515 11.5C19.3515 11.109 19.3182 10.741 19.2736 10.3615L19.2848 10.3845L22 8.1765L19.2959 3.3235L16.1022 4.6575L16.1133 4.669C15.5346 4.209 14.9004 3.818 14.2104 3.519H14.2215L13.7097 0H8.29034L7.80071 3.5305H7.81184C7.1219 3.8295 6.48761 4.2205 5.90895 4.6805L5.92008 4.669L2.71523 3.3235L0 8.1765L2.71523 10.3845L2.72635 10.3615C2.68184 10.741 2.64846 11.109 2.64846 11.5C2.64846 11.891 2.68184 12.282 2.73748 12.6615L2.72635 12.6385L0.389479 14.536L0.0222562 14.835L2.72635 19.665L5.93121 18.3425L5.90895 18.2965C6.49874 18.768 7.13303 19.159 7.83409 19.458H7.80071L8.30147 23H13.6985C13.6985 23 13.7319 22.793 13.7653 22.517L14.1882 19.4695H14.177C14.867 19.1705 15.5124 18.7795 16.1022 18.308L16.0799 18.354L19.2848 19.6765L21.9889 14.8465C21.9889 14.8465 21.8331 14.7085 21.6216 14.5475L19.2736 12.6385ZM10.9944 15.525C8.84674 15.525 7.09965 13.7195 7.09965 11.5C7.09965 9.2805 8.84674 7.475 10.9944 7.475C13.1421 7.475 14.8892 9.2805 14.8892 11.5C14.8892 13.7195 13.1421 15.525 10.9944 15.525Z" fill="white"/>
</svg>
