<svg width="14" height="14" viewBox="0 0 14 14" fill="none" xmlns="http://www.w3.org/2000/svg">
<path d="M9.82618 0.716179C10.0532 0.489145 10.3227 0.309046 10.6193 0.186164C10.9159 0.0632817 11.2339 2.32255e-05 11.5549 6.39429e-09C11.876 -2.32127e-05 12.1939 0.0631893 12.4906 0.186029C12.7872 0.308868 13.0567 0.488928 13.2838 0.715929C13.5108 0.942929 13.6909 1.21242 13.8138 1.50903C13.9367 1.80563 14 2.12353 14 2.44458C14 2.76563 13.9368 3.08355 13.814 3.38017C13.6911 3.67679 13.511 3.94631 13.284 4.17334L12.833 4.62386L9.37564 1.1667L9.82618 0.716179ZM8.66857 1.87423L1.17881 9.36459C0.926633 9.61659 0.752639 9.93608 0.677759 10.2846L0.0111913 13.3948C-0.00638704 13.4765 -0.00321648 13.5612 0.0204134 13.6414C0.0440432 13.7215 0.0873789 13.7945 0.146461 13.8535C0.205544 13.9126 0.278489 13.956 0.358634 13.9796C0.438778 14.0032 0.523566 14.0064 0.605251 13.9888L3.71557 13.3223C4.06413 13.2474 4.38364 13.0734 4.63566 12.8213L12.1264 5.3309L8.66857 1.87423Z" fill="#727480"/>
</svg>
