<svg width="10" height="15" viewBox="0 0 10 15" fill="none" xmlns="http://www.w3.org/2000/svg">
<path d="M4.9998 0.199951C4.0398 0.199951 3.1998 1.03995 3.1998 1.99995C3.1998 2.95995 4.0398 3.79995 4.9998 3.79995C5.95981 3.79995 6.7998 2.95995 6.7998 1.99995C6.7998 1.03995 5.95981 0.199951 4.9998 0.199951ZM0.799805 4.99995V6.19995C0.799805 6.19995 3.1998 6.19995 3.1998 8.59995V11C3.1998 13.4 0.799805 13.4 0.799805 13.4V14.6H9.19981V13.4C9.19981 13.4 6.7998 13.4 6.7998 11V6.19995C6.7998 5.59995 6.1998 4.99995 5.5998 4.99995H0.799805Z" fill="#838693"/>
</svg>
