<svg width="16" height="15" viewBox="0 0 16 15" fill="none" xmlns="http://www.w3.org/2000/svg">
<path fill-rule="evenodd" clip-rule="evenodd" d="M10.6834 2.77782e-08C9.97999 -7.54408e-05 9.28505 0.153626 8.64731 0.450332C8.00958 0.747037 7.44449 1.17957 6.99165 1.7176C6.5388 2.25563 6.20917 2.88615 6.02586 3.56496C5.84254 4.24376 5.80998 4.95443 5.93044 5.64714C5.97832 5.92571 5.90758 6.15929 5.77251 6.29429L1.12744 10.9364C0.725621 11.3383 0.499932 11.8833 0.5 12.4514V14.4643C0.5 14.76 0.740114 15 1.03597 15H3.71582C3.85797 15 3.99429 14.9436 4.09481 14.8431C4.19532 14.7426 4.25179 14.6064 4.25179 14.4643V13.3929H5.32373C5.46588 13.3929 5.6022 13.3364 5.70271 13.236C5.80323 13.1355 5.8597 12.9992 5.8597 12.8571V11.7857H6.93164C7.07374 11.7856 7.20997 11.7291 7.31039 11.6286L9.20986 9.73C9.34564 9.595 9.57933 9.52429 9.85732 9.57286C10.5154 9.68618 11.1899 9.66169 11.838 9.50093C12.4862 9.34017 13.0939 9.04664 13.6226 8.63894C14.1514 8.23124 14.5897 7.71825 14.9098 7.13244C15.2299 6.54663 15.4248 5.90077 15.4822 5.23576C15.5395 4.57075 15.4582 3.90107 15.2432 3.26913C15.0282 2.63719 14.6842 2.05675 14.2331 1.56457C13.782 1.0724 13.2336 0.6792 12.6226 0.409881C12.0115 0.140563 11.3512 0.000989697 10.6834 2.77782e-08ZM10.6834 2.14286C10.5413 2.14286 10.405 2.1993 10.3044 2.29976C10.2039 2.40023 10.1475 2.53649 10.1475 2.67857C10.1475 2.82065 10.2039 2.95691 10.3044 3.05738C10.405 3.15784 10.5413 3.21429 10.6834 3.21429C11.1099 3.21429 11.5188 3.38361 11.8204 3.68501C12.1219 3.9864 12.2913 4.39519 12.2913 4.82143C12.2913 4.96351 12.3478 5.09977 12.4483 5.20024C12.5488 5.3007 12.6852 5.35714 12.8273 5.35714C12.9695 5.35714 13.1058 5.3007 13.2063 5.20024C13.3068 5.09977 13.3633 4.96351 13.3633 4.82143C13.3633 4.11103 13.0809 3.42972 12.5784 2.92739C12.0758 2.42506 11.3942 2.14286 10.6834 2.14286Z" fill="#838693"/>
</svg>
