<svg width="30" height="30" viewBox="0 0 30 30" fill="none" xmlns="http://www.w3.org/2000/svg">
<circle cx="15" cy="15" r="14" stroke="white" stroke-width="2"/>
<path fill-rule="evenodd" clip-rule="evenodd" d="M7.18359 14.4112C7.33189 12.4395 8.21982 10.5967 9.66946 9.25199C11.1191 7.90731 13.0234 7.16012 15.0006 7.16016C14.35 7.16016 13.7699 7.4455 13.2917 7.88213C12.8175 8.31641 12.4169 8.92314 12.0924 9.63963C11.7663 10.3608 11.5123 11.2043 11.3406 12.1191C11.2007 12.8759 11.1173 13.642 11.0913 14.4112H7.18359ZM7.18359 15.5871H11.0913C11.1195 16.3725 11.2034 17.1455 11.3406 17.8792C11.5131 18.794 11.7663 19.6375 12.0924 20.3587C12.4169 21.0751 12.8175 21.6819 13.2917 22.1162C13.7699 22.5528 14.35 22.8381 15.0006 22.8381C10.8695 22.8381 7.48383 19.6422 7.18359 15.5871Z" fill="white"/>
<path d="M15.0008 8.25391C14.7852 8.25391 14.507 8.34562 14.1832 8.64194C13.8571 8.9406 13.5302 9.40859 13.2418 10.0459C12.9548 10.6793 12.722 11.4436 12.5621 12.298C12.4367 12.9706 12.3583 13.684 12.3301 14.4114H17.6716C17.646 13.7022 17.5685 12.9959 17.4395 12.298C17.2796 11.4436 17.0476 10.6793 16.7599 10.0459C16.4714 9.40859 16.1453 8.9406 15.8192 8.64272C15.4947 8.34562 15.2164 8.25391 15.0008 8.25391ZM12.5621 17.7007C12.722 18.5551 12.9548 19.3194 13.2418 19.9528C13.5302 20.5901 13.8571 21.0581 14.1824 21.356C14.507 21.6531 14.786 21.7448 15.0008 21.7448C15.2164 21.7448 15.4947 21.6531 15.8184 21.3568C16.1453 21.0581 16.4714 20.5901 16.7599 19.9528C17.0468 19.3194 17.2796 18.5551 17.4395 17.7007C17.5657 17.0281 17.6441 16.3147 17.6716 15.5873H12.3301C12.3575 16.3147 12.4359 17.0281 12.5621 17.7007Z" fill="white"/>
<path d="M15.001 7.16016C15.6524 7.16016 16.2317 7.4455 16.7099 7.88213C17.1841 8.31641 17.5855 8.92314 17.9092 9.63963C18.2361 10.3608 18.4893 11.2043 18.661 12.1191C18.7982 12.8528 18.8821 13.6258 18.9103 14.4112H22.818C22.6699 12.4394 21.782 10.5965 20.3323 9.25178C18.8827 7.90707 16.9783 7.15994 15.001 7.16016ZM18.661 17.8792C18.4893 18.794 18.2361 19.6375 17.9092 20.3587C17.5855 21.0751 17.1841 21.6819 16.7099 22.1162C16.2317 22.5528 15.6524 22.8381 15.001 22.8381C19.1321 22.8381 22.5178 19.6422 22.818 15.5871H18.9103C18.8843 16.3562 18.8009 17.1224 18.661 17.8792Z" fill="white"/>
</svg>
