<svg width="22" height="28" viewBox="0 0 22 28" fill="none" xmlns="http://www.w3.org/2000/svg">
<path d="M21.6663 8.66675L13.6663 0.666748H2.99967C2.29243 0.666748 1.61415 0.947699 1.11406 1.4478C0.613959 1.94789 0.333008 2.62617 0.333008 3.33341V24.6667C0.333008 25.374 0.613959 26.0523 1.11406 26.5524C1.61415 27.0525 2.29243 27.3334 2.99967 27.3334H18.9997C19.7069 27.3334 20.3852 27.0525 20.8853 26.5524C21.3854 26.0523 21.6663 25.374 21.6663 24.6667V8.66675ZM6.99967 23.3334H4.33301V11.3334H6.99967V23.3334ZM12.333 23.3334H9.66634V15.3334H12.333V23.3334ZM17.6663 23.3334H14.9997V19.3334H17.6663V23.3334ZM13.6663 10.0001H12.333V3.33341L18.9997 10.0001H13.6663Z" fill="white"/>
</svg>
