<svg width="22" height="22" viewBox="0 0 22 22" fill="none" xmlns="http://www.w3.org/2000/svg">
<path d="M19.75 0.5H2.25C1.78587 0.5 1.34075 0.684374 1.01256 1.01256C0.684374 1.34075 0.5 1.78587 0.5 2.25V19.75C0.5 20.2141 0.684374 20.6592 1.01256 20.9874C1.34075 21.3156 1.78587 21.5 2.25 21.5H19.75C20.2141 21.5 20.6592 21.3156 20.9874 20.9874C21.3156 20.6592 21.5 20.2141 21.5 19.75V2.25C21.5 1.78587 21.3156 1.34075 20.9874 1.01256C20.6592 0.684374 20.2141 0.5 19.75 0.5ZM16.8691 15.6309C16.9504 15.7122 17.0148 15.8087 17.0588 15.915C17.1028 16.0212 17.1255 16.135 17.1255 16.25C17.1255 16.365 17.1028 16.4788 17.0588 16.585C17.0148 16.6913 16.9504 16.7878 16.8691 16.8691C16.7878 16.9504 16.6913 17.0148 16.585 17.0588C16.4788 17.1028 16.365 17.1255 16.25 17.1255C16.135 17.1255 16.0212 17.1028 15.915 17.0588C15.8087 17.0148 15.7122 16.9504 15.6309 16.8691L11 12.237L6.36906 16.8691C6.20488 17.0332 5.98219 17.1255 5.75 17.1255C5.51781 17.1255 5.29512 17.0332 5.13094 16.8691C4.96675 16.7049 4.87451 16.4822 4.87451 16.25C4.87451 16.0178 4.96675 15.7951 5.13094 15.6309L9.76297 11L5.13094 6.36906C4.96675 6.20488 4.87451 5.98219 4.87451 5.75C4.87451 5.51781 4.96675 5.29512 5.13094 5.13094C5.29512 4.96675 5.51781 4.87451 5.75 4.87451C5.98219 4.87451 6.20488 4.96675 6.36906 5.13094L11 9.76297L15.6309 5.13094C15.7951 4.96675 16.0178 4.87451 16.25 4.87451C16.4822 4.87451 16.7049 4.96675 16.8691 5.13094C17.0332 5.29512 17.1255 5.51781 17.1255 5.75C17.1255 5.98219 17.0332 6.20488 16.8691 6.36906L12.237 11L16.8691 15.6309Z" fill="white"/>
</svg>
