<svg width="23" height="25" viewBox="0 0 23 25" fill="none" xmlns="http://www.w3.org/2000/svg">
<path d="M1.96919 2.33187C2.20427 1.39154 2.32181 0.922667 2.67185 0.648833C3.02319 0.375 3.50756 0.375 4.47631 0.375H18.5245C19.4932 0.375 19.9776 0.375 20.3289 0.648833C20.6777 0.922667 20.7965 1.39154 21.0316 2.33187L22.5855 8.54996C22.7108 9.05112 22.7741 9.30042 22.7599 9.5045C22.7422 9.76187 22.6478 10.0081 22.489 10.2113C22.3301 10.4146 22.1141 10.5657 21.8686 10.645C21.6749 10.7083 21.4114 10.7083 20.8831 10.7083C20.1946 10.7083 19.8497 10.7083 19.5617 10.6412C19.1623 10.5481 18.7909 10.3614 18.478 10.0964C18.1651 9.83132 17.9198 9.49562 17.7624 9.117C17.6474 8.84317 17.5919 8.50992 17.4821 7.84729C17.4511 7.66129 17.4356 7.56829 17.4175 7.54375C17.4055 7.52721 17.3898 7.51374 17.3716 7.50446C17.3534 7.49517 17.3333 7.49033 17.3129 7.49033C17.2925 7.49033 17.2723 7.49517 17.2542 7.50446C17.236 7.51374 17.2202 7.52721 17.2083 7.54375C17.1902 7.56829 17.1747 7.66 17.1437 7.84729L17.0391 8.47892C16.9551 9.08705 16.6573 9.64541 16.1991 10.0539C15.7409 10.4625 15.1521 10.6945 14.5384 10.7083H14.2749C13.6611 10.6945 13.0724 10.4625 12.6142 10.0539C12.1559 9.64541 11.8582 9.08705 11.7742 8.47892L11.6696 7.846C11.6386 7.66129 11.6231 7.56829 11.605 7.54375C11.593 7.52721 11.5773 7.51374 11.5591 7.50446C11.5409 7.49517 11.5208 7.49033 11.5004 7.49033C11.48 7.49033 11.4598 7.49517 11.4417 7.50446C11.4235 7.51374 11.4077 7.52721 11.3958 7.54375C11.3777 7.56829 11.3622 7.66 11.3312 7.84729L11.2266 8.47892C11.1426 9.08705 10.8448 9.64541 10.3866 10.0539C9.92838 10.4625 9.33964 10.6945 8.72589 10.7083H8.46239C7.87149 10.6945 7.3032 10.4784 6.85235 10.0962C6.4015 9.71401 6.09534 9.18875 5.98498 8.60808C5.97565 8.56533 5.9679 8.52224 5.96173 8.47892L5.8571 7.846C5.8261 7.66129 5.8106 7.56829 5.79252 7.54375C5.78054 7.52721 5.76482 7.51374 5.74663 7.50446C5.72844 7.49517 5.70831 7.49033 5.68789 7.49033C5.66747 7.49033 5.64734 7.49517 5.62916 7.50446C5.61097 7.51374 5.59524 7.52721 5.58327 7.54375C5.56519 7.56829 5.54969 7.66 5.51869 7.84729C5.40889 8.51121 5.35335 8.84187 5.23839 9.117C5.08109 9.49547 4.836 9.83108 4.52336 10.0961C4.21072 10.3611 3.83951 10.548 3.44039 10.6412C3.15106 10.7083 2.80748 10.7083 2.11773 10.7083C1.58944 10.7083 1.32594 10.7083 1.13219 10.645C0.886717 10.5657 0.670638 10.4146 0.511791 10.2113C0.352944 10.0081 0.258607 9.76187 0.240936 9.5045C0.228019 9.30042 0.290019 9.05112 0.415311 8.54996L1.96919 2.33187Z" fill="white"/>
<path fill-rule="evenodd" clip-rule="evenodd" d="M2.47997 12.6457C2.45801 13.1895 2.45801 13.8276 2.45801 14.5832V22.3332C2.45801 23.5513 2.45801 24.1597 2.83647 24.5381C3.21492 24.9166 3.8233 24.9166 5.04134 24.9166H8.91634V19.7499C8.91634 19.4073 9.05243 19.0788 9.29466 18.8366C9.5369 18.5943 9.86544 18.4582 10.208 18.4582H12.7913C13.1339 18.4582 13.4625 18.5943 13.7047 18.8366C13.9469 19.0788 14.083 19.4073 14.083 19.7499V24.9166H17.958C19.1761 24.9166 19.7844 24.9166 20.1629 24.5381C20.5413 24.1597 20.5413 23.5513 20.5413 22.3332V14.5832C20.5413 13.8276 20.5413 13.1895 20.5194 12.6457C20.0479 12.6457 19.5661 12.6315 19.1205 12.5282C18.4592 12.3741 17.8411 12.073 17.3122 11.6473C16.5578 12.2544 15.6072 12.6212 14.5829 12.6445L14.4201 12.6457H14.229C13.2338 12.6227 12.2742 12.2712 11.4997 11.646C10.7453 12.2531 9.79467 12.6199 8.77038 12.6432L8.60763 12.6445H8.41647C7.42148 12.6218 6.46191 12.2707 5.68717 11.646C5.16534 12.0658 4.55051 12.3693 3.87884 12.5269C3.43322 12.6302 2.95142 12.6432 2.47997 12.6445" fill="white"/>
</svg>
