<svg width="25" height="20" viewBox="0 0 25 20" fill="none" xmlns="http://www.w3.org/2000/svg">
<path d="M12.4422 12.9729C8.52177 12.9729 5.21387 13.6327 5.21387 16.1793C5.21387 18.727 8.54314 19.3636 12.4422 19.3636C16.3626 19.3636 19.6706 18.7038 19.6706 16.1572C19.6706 13.6095 16.3413 12.9729 12.4422 12.9729Z" fill="white"/>
<path opacity="0.4" d="M12.4425 10.5464C15.0971 10.5464 17.2257 8.34135 17.2257 5.59133C17.2257 2.84025 15.0971 0.63623 12.4425 0.63623C9.7878 0.63623 7.65918 2.84025 7.65918 5.59133C7.65918 8.34135 9.7878 10.5464 12.4425 10.5464Z" fill="white"/>
<path opacity="0.4" d="M22.8268 6.74499C23.5137 3.96229 21.5 1.46313 18.9359 1.46313C18.6571 1.46313 18.3905 1.49476 18.13 1.54851C18.0954 1.55695 18.0568 1.57486 18.0364 1.60649C18.013 1.64654 18.0303 1.7003 18.0558 1.73508C18.826 2.85448 19.2686 4.21737 19.2686 5.6804C19.2686 7.08228 18.8626 8.38931 18.1504 9.47393C18.0771 9.58566 18.1423 9.73639 18.2715 9.75957C18.4506 9.79225 18.6337 9.80912 18.8209 9.81439C20.688 9.86498 22.3639 8.62015 22.8268 6.74499Z" fill="white"/>
<path d="M24.7831 13.2969C24.4412 12.5422 23.616 12.0247 22.3614 11.7707C21.7692 11.621 20.1667 11.4102 18.676 11.4386C18.6536 11.4418 18.6414 11.4576 18.6394 11.4682C18.6363 11.4829 18.6424 11.5082 18.6719 11.524C19.3608 11.8771 22.0236 13.4129 21.6888 16.652C21.6746 16.7922 21.7835 16.9134 21.9188 16.8923C22.5741 16.7953 24.2601 16.4201 24.7831 15.2511C25.072 14.6335 25.072 13.9157 24.7831 13.2969Z" fill="white"/>
<path opacity="0.4" d="M6.86905 1.54876C6.60959 1.49395 6.34198 1.46338 6.06319 1.46338C3.49908 1.46338 1.48544 3.96254 2.17327 6.74523C2.63522 8.62039 4.31105 9.86522 6.17817 9.81463C6.36539 9.80936 6.54955 9.79144 6.72762 9.75982C6.85684 9.73663 6.92196 9.5859 6.8487 9.47417C6.13645 8.3885 5.73046 7.08253 5.73046 5.68064C5.73046 4.21656 6.1741 2.85367 6.94435 1.73532C6.96877 1.70054 6.98708 1.64678 6.96266 1.60673C6.94231 1.57405 6.90466 1.55719 6.86905 1.54876Z" fill="white"/>
<path d="M2.63813 11.7705C1.38355 12.0246 0.559372 12.5421 0.217491 13.2968C-0.0724971 13.9155 -0.0724971 14.6333 0.217491 15.2521C0.740488 16.42 2.42649 16.7962 3.08176 16.8922C3.21709 16.9132 3.32495 16.7931 3.3107 16.6518C2.97594 13.4138 5.63875 11.878 6.32862 11.5249C6.35711 11.5081 6.36321 11.4838 6.36016 11.468C6.35812 11.4575 6.34693 11.4417 6.32455 11.4396C4.83289 11.41 3.23134 11.6209 2.63813 11.7705Z" fill="white"/>
</svg>
