<svg width="22" height="25" viewBox="0 0 22 25" fill="none" xmlns="http://www.w3.org/2000/svg">
<g clip-path="url(#clip0_619_2221)">
<path d="M0 19.79V21.875C0 23.5986 3.69531 25 8.25 25C12.8047 25 16.5 23.5986 16.5 21.875V19.79C14.7254 21.2109 11.4812 21.875 8.25 21.875C5.01875 21.875 1.77461 21.2109 0 19.79ZM13.75 6.25C18.3047 6.25 22 4.84863 22 3.125C22 1.40137 18.3047 0 13.75 0C9.19531 0 5.5 1.40137 5.5 3.125C5.5 4.84863 9.19531 6.25 13.75 6.25ZM0 14.668V17.1875C0 18.9111 3.69531 20.3125 8.25 20.3125C12.8047 20.3125 16.5 18.9111 16.5 17.1875V14.668C14.7254 16.3281 11.477 17.1875 8.25 17.1875C5.02305 17.1875 1.77461 16.3281 0 14.668ZM17.875 15.2051C20.3371 14.6631 22 13.6572 22 12.5V10.415C21.0031 11.2158 19.5379 11.7627 17.875 12.0996V15.2051ZM8.25 7.8125C3.69531 7.8125 0 9.56055 0 11.7188C0 13.877 3.69531 15.625 8.25 15.625C12.8047 15.625 16.5 13.877 16.5 11.7188C16.5 9.56055 12.8047 7.8125 8.25 7.8125ZM17.673 10.5615C20.2512 10.0342 22 8.99902 22 7.8125V5.72754C20.4746 6.95312 17.8535 7.61231 15.0949 7.76856C16.3625 8.4668 17.2949 9.4043 17.673 10.5615Z" fill="#B3B3B3"/>
</g>
<defs>
<clipPath id="clip0_619_2221">
<rect width="22" height="25" fill="white"/>
</clipPath>
</defs>
</svg>
