<svg width="28" height="20" viewBox="0 0 28 20" fill="none" xmlns="http://www.w3.org/2000/svg">
<path d="M13.9346 13.175C9.54372 13.175 5.83887 13.8797 5.83887 16.5994C5.83887 19.3201 9.56765 20 13.9346 20C18.3255 20 22.0304 19.2954 22.0304 16.5757C22.0304 13.855 18.3016 13.175 13.9346 13.175Z" fill="#B3B3B3"/>
<path opacity="0.4" d="M13.9354 10.5836C16.9086 10.5836 19.2927 8.2287 19.2927 5.29181C19.2927 2.35379 16.9086 0 13.9354 0C10.9622 0 8.57812 2.35379 8.57812 5.29181C8.57812 8.2287 10.9622 10.5836 13.9354 10.5836Z" fill="#B3B3B3"/>
<path opacity="0.4" d="M25.5671 6.52383C26.3363 3.55204 24.081 0.883057 21.2092 0.883057C20.897 0.883057 20.5984 0.916827 20.3067 0.974237C20.2679 0.983242 20.2246 1.00238 20.2018 1.03615C20.1756 1.07892 20.195 1.13633 20.2235 1.17348C21.0862 2.36895 21.5819 3.82445 21.5819 5.38689C21.5819 6.88404 21.1272 8.27988 20.3295 9.43821C20.2474 9.55753 20.3203 9.7185 20.4651 9.74327C20.6656 9.77816 20.8708 9.79617 21.0805 9.8018C23.1716 9.85583 25.0486 8.52641 25.5671 6.52383Z" fill="#B3B3B3"/>
<path d="M27.7577 13.521C27.3748 12.7151 26.4506 12.1624 25.0454 11.8911C24.3822 11.7312 22.5873 11.5061 20.9178 11.5365C20.8927 11.5399 20.879 11.5567 20.8768 11.568C20.8734 11.5838 20.8802 11.6108 20.9132 11.6277C21.6847 12.0048 24.6671 13.6449 24.2922 17.1041C24.2762 17.2538 24.3981 17.3832 24.5497 17.3607C25.2836 17.2572 27.1719 16.8564 27.7577 15.608C28.0813 14.9484 28.0813 14.1818 27.7577 13.521Z" fill="#B3B3B3"/>
<path opacity="0.4" d="M7.69302 0.974725C7.40242 0.91619 7.10271 0.883545 6.79046 0.883545C3.91866 0.883545 1.66338 3.55253 2.43375 6.52432C2.95113 8.5269 4.82806 9.85632 6.91923 9.80229C7.12892 9.79666 7.33519 9.77752 7.53462 9.74375C7.67935 9.71899 7.75228 9.55802 7.67023 9.43869C6.87251 8.27925 6.41781 6.88453 6.41781 5.38738C6.41781 3.82381 6.91467 2.36831 7.77735 1.17397C7.8047 1.13682 7.82522 1.07941 7.79787 1.03664C7.77507 1.00174 7.73291 0.98373 7.69302 0.974725Z" fill="#B3B3B3"/>
<path d="M2.95471 11.8909C1.54958 12.1622 0.626497 12.7149 0.24359 13.5208C-0.0811968 14.1816 -0.0811968 14.9482 0.24359 15.609C0.829346 16.8562 2.71767 17.2581 3.45157 17.3605C3.60314 17.383 3.72394 17.2547 3.70799 17.1039C3.33306 13.6458 6.3154 12.0057 7.08805 11.6286C7.11996 11.6106 7.1268 11.5847 7.12338 11.5678C7.1211 11.5565 7.10856 11.5397 7.08349 11.5374C5.41283 11.5059 3.6191 11.731 2.95471 11.8909Z" fill="#B3B3B3"/>
</svg>
