<svg width="59" height="59" viewBox="0 0 59 59" fill="none" xmlns="http://www.w3.org/2000/svg">
<circle cx="29.5" cy="29.5" r="28.5" stroke="#B3B3B3" stroke-width="2"/>
<path fill-rule="evenodd" clip-rule="evenodd" d="M14.127 28.3434C14.4186 24.4657 16.1649 20.8415 19.0158 18.197C21.8668 15.5524 25.6118 14.0829 29.5005 14.083C28.2209 14.083 27.08 14.6442 26.1396 15.5029C25.2069 16.357 24.4191 17.5502 23.7809 18.9593C23.1395 20.3776 22.64 22.0365 22.3024 23.8356C22.0272 25.3239 21.8633 26.8307 21.8122 28.3434H14.127ZM14.127 30.6559H21.8122C21.8677 32.2007 22.0326 33.7208 22.3024 35.1638C22.6416 36.9629 23.1395 38.6217 23.7809 40.0401C24.4191 41.4491 25.2069 42.6424 26.1396 43.4965C27.08 44.3552 28.2209 44.9163 29.5005 44.9163C21.3759 44.9163 14.7174 38.631 14.127 30.6559Z" fill="#B3B3B3"/>
<path d="M29.4995 16.2344C29.0756 16.2344 28.5283 16.4148 27.8916 16.9975C27.2502 17.5849 26.6074 18.5053 26.04 19.7586C25.4758 21.0043 25.0179 22.5074 24.7034 24.1878C24.4567 25.5106 24.3026 26.9135 24.2471 28.3442H34.752C34.7018 26.9494 34.5492 25.5603 34.2957 24.1878C33.9812 22.5074 33.5248 21.0043 32.959 19.7586C32.3917 18.5053 31.7504 17.5849 31.109 16.999C30.4708 16.4148 29.9235 16.2344 29.4995 16.2344ZM24.7034 34.813C25.0179 36.4934 25.4758 37.9965 26.04 39.2422C26.6074 40.4956 27.2502 41.416 27.89 42.0018C28.5283 42.5861 29.0771 42.7665 29.4995 42.7665C29.9235 42.7665 30.4708 42.5861 31.1075 42.0033C31.7504 41.416 32.3917 40.4956 32.959 39.2422C33.5233 37.9965 33.9812 36.4934 34.2957 34.813C34.5439 33.4903 34.698 32.0873 34.752 30.6567H24.2471C24.301 32.0873 24.4552 33.4903 24.7034 34.813Z" fill="#B3B3B3"/>
<path d="M29.5 14.083C30.7811 14.083 31.9204 14.6442 32.8608 15.5029C33.7935 16.357 34.5829 17.5502 35.2196 18.9593C35.8625 20.3776 36.3604 22.0365 36.698 23.8356C36.9678 25.2786 37.1328 26.7987 37.1883 28.3434H44.8735C44.5822 24.4656 42.836 20.8412 39.985 18.1965C37.134 15.5519 33.3887 14.0826 29.5 14.083ZM36.698 35.1638C36.3604 36.9629 35.8625 38.6217 35.2196 40.0401C34.5829 41.4491 33.7935 42.6424 32.8608 43.4965C31.9204 44.3552 30.7811 44.9163 29.5 44.9163C37.6246 44.9163 44.283 38.631 44.8735 30.6559H37.1883C37.1371 32.1686 36.9733 33.6754 36.698 35.1638Z" fill="#B3B3B3"/>
</svg>
