<svg width="59" height="59" viewBox="0 0 59 59" fill="none" xmlns="http://www.w3.org/2000/svg">
<path d="M41.9105 30.6649L41.8938 30.699C41.9605 30.1373 42.0273 29.5586 42.0273 28.98C42.0273 28.4013 41.9772 27.8566 41.9105 27.295L41.9272 27.329L46 24.0612L41.9439 16.8787L37.1533 18.8531L37.17 18.8701C36.302 18.1893 35.3505 17.6106 34.3156 17.1681H34.3323L33.5645 11.96H25.4355L24.7011 17.1851H24.7178C23.6829 17.6276 22.7314 18.2063 21.8634 18.8871L21.8801 18.8701L17.0728 16.8787L13 24.0612L17.0728 27.329L17.0895 27.295C17.0228 27.8566 16.9727 28.4013 16.9727 28.98C16.9727 29.5586 17.0228 30.1373 17.1062 30.699L17.0895 30.6649L13.5842 33.4732L13.0334 33.9158L17.0895 41.0642L21.8968 39.1069L21.8634 39.0388C22.7481 39.7366 23.6995 40.3153 24.7511 40.7578H24.7011L25.4522 46H33.5478C33.5478 46 33.5979 45.6936 33.6479 45.2851L34.2822 40.7748H34.2656C35.3005 40.3323 36.2686 39.7536 37.1533 39.0558L37.1199 39.1239L41.9272 41.0812L45.9833 33.9328C45.9833 33.9328 45.7496 33.7285 45.4325 33.4903L41.9105 30.6649ZM29.4917 34.937C26.2701 34.937 23.6495 32.2648 23.6495 28.98C23.6495 25.6951 26.2701 23.023 29.4917 23.023C32.7132 23.023 35.3338 25.6951 35.3338 28.98C35.3338 32.2648 32.7132 34.937 29.4917 34.937Z" fill="#B3B3B3"/>
<circle cx="29.5" cy="29.5" r="28.5" stroke="#B3B3B3" stroke-width="2"/>
</svg>
