<svg width="23" height="31" viewBox="0 0 23 31" fill="none" xmlns="http://www.w3.org/2000/svg">
<path d="M11.5019 31C13.1696 31 14.5341 29.5692 14.5341 27.8205H8.46967C8.46967 28.6638 8.78913 29.4725 9.35778 30.0688C9.92643 30.665 10.6977 31 11.5019 31ZM20.5985 21.4615V13.5128C20.5985 8.63231 18.1121 4.54667 13.776 3.46564V2.38462C13.776 1.06513 12.7602 0 11.5019 0C10.2435 0 9.22772 1.06513 9.22772 2.38462V3.46564C4.87651 4.54667 2.40526 8.61641 2.40526 13.5128V21.4615L0.44949 23.5123C-0.505654 24.5138 0.16143 26.2308 1.51076 26.2308H21.4778C22.8271 26.2308 23.5094 24.5138 22.5542 23.5123L20.5985 21.4615Z" fill="#B3B3B3"/>
</svg>
