<svg width="29" height="27" viewBox="0 0 29 27" fill="none" xmlns="http://www.w3.org/2000/svg">
<path d="M14.5 0.583332C6.91825 0.583332 0.75 6.37775 0.75 13.5V18.8514C0.75 20.174 1.98337 21.25 3.5 21.25H4.875C5.23967 21.25 5.58941 21.1139 5.84727 20.8717C6.10513 20.6294 6.25 20.3009 6.25 19.9583V13.3153C6.25 12.9727 6.10513 12.6442 5.84727 12.4019C5.58941 12.1597 5.23967 12.0236 4.875 12.0236H3.6265C4.391 7.02487 8.96975 3.16667 14.5 3.16667C20.0303 3.16667 24.609 7.02487 25.3735 12.0236H24.125C23.7603 12.0236 23.4106 12.1597 23.1527 12.4019C22.8949 12.6442 22.75 12.9727 22.75 13.3153V21.25C22.75 22.6747 21.5166 23.8333 20 23.8333H17.25V22.5417H11.75V26.4167H20C23.0333 26.4167 25.5 24.0994 25.5 21.25C27.0166 21.25 28.25 20.174 28.25 18.8514V13.5C28.25 6.37775 22.0817 0.583332 14.5 0.583332Z" fill="#B3B3B3"/>
</svg>
