<svg width="23" height="24" viewBox="0 0 23 24" fill="none" xmlns="http://www.w3.org/2000/svg">
<path d="M22.0216 22.0648C22.7806 21.9163 23.2343 21.1697 22.8562 20.5316C22.0229 19.1275 20.7112 17.8927 19.0337 16.9524C16.8722 15.7408 14.2226 15.0833 11.5001 15.0833C8.77618 15.0833 6.12793 15.7395 3.96643 16.9524C2.28893 17.8927 0.977178 19.1275 0.143928 20.5316C-0.234197 21.1697 0.219553 21.9163 0.978553 22.0648C7.91788 23.4234 15.0808 23.4234 22.0202 22.0648" fill="#B3B3B3"/>
<path d="M11.5 13.7917C15.297 13.7917 18.375 10.9002 18.375 7.33333C18.375 3.76649 15.297 0.875 11.5 0.875C7.70304 0.875 4.625 3.76649 4.625 7.33333C4.625 10.9002 7.70304 13.7917 11.5 13.7917Z" fill="#B3B3B3"/>
</svg>
