<svg width="15" height="23" viewBox="0 0 15 23" fill="none" xmlns="http://www.w3.org/2000/svg">
<path d="M8.99975 9.67927V6.14077C10.1537 6.42322 11.2818 6.96117 12.2047 7.80747L12.2086 7.80222C12.2775 7.85717 12.3612 7.89497 12.4564 7.89497C12.5817 7.89497 12.6891 7.83442 12.7633 7.74517L12.7686 7.74622L14.2603 5.64342L14.2568 5.64167C14.318 5.57097 14.3586 5.48137 14.3586 5.38057C14.3586 5.26157 14.3051 5.15727 14.2232 5.08342C12.8396 3.80557 11.0732 3.03837 8.99975 2.80772V0.77562C8.99975 0.55267 8.8188 0.37207 8.59585 0.37207H6.99355C6.7706 0.37207 6.59 0.55267 6.59 0.77562V2.75627C3.1285 3.11502 1.0775 5.32037 1.0775 7.91002C1.0775 11.3971 3.94925 12.397 6.59 13.0382V17.0121C4.89425 16.7083 3.50055 15.8295 2.5524 14.8456C2.54575 14.8383 2.53875 14.832 2.5314 14.8253L2.5132 14.8075L2.5104 14.8113C2.44021 14.7511 2.3512 14.7173 2.25875 14.7158C2.18674 14.7164 2.11626 14.7365 2.05476 14.774C1.99326 14.8115 1.94305 14.8649 1.90945 14.9286L1.90455 14.9279L0.460801 17.0713L0.462552 17.0748C0.397667 17.1466 0.361315 17.2398 0.360352 17.3366C0.360352 17.465 0.424052 17.5742 0.517152 17.6481L0.513302 17.6537C1.92345 19.0638 3.8978 20.0893 6.59 20.3203V22.2243C6.59 22.4473 6.7706 22.6279 6.99355 22.6279H8.59585C8.8188 22.6279 8.9994 22.4469 8.9994 22.2243L8.99975 20.32C12.7689 19.935 14.6407 17.7307 14.6407 14.8841C14.6407 11.3719 11.6664 10.3457 8.99975 9.67927ZM6.58965 9.08917C5.5386 8.75632 4.8204 8.37132 4.8204 7.62757C4.8204 6.75607 5.4616 6.14077 6.58965 5.98677V9.08917ZM8.99975 17.0636V13.628C10.1282 13.9867 10.923 14.3976 10.923 15.2432C10.923 16.064 10.3074 16.807 8.99975 17.0636Z" fill="#B3B3B3"/>
</svg>
