<svg width="59" height="59" viewBox="0 0 59 59" fill="none" xmlns="http://www.w3.org/2000/svg">
<circle cx="29.5" cy="29.5" r="28.5" stroke="#B3B3B3" stroke-width="2"/>
<path d="M18.7393 17.5844C19.0047 16.5227 19.1374 15.9933 19.5326 15.6842C19.9293 15.375 20.4762 15.375 21.5699 15.375H37.4307C38.5245 15.375 39.0714 15.375 39.468 15.6842C39.8618 15.9933 39.9959 16.5227 40.2614 17.5844L42.0157 24.6048C42.1572 25.1706 42.2287 25.4521 42.2126 25.6825C42.1927 25.9731 42.0862 26.251 41.9068 26.4805C41.7275 26.7101 41.4835 26.8806 41.2064 26.9702C40.9876 27.0417 40.6901 27.0417 40.0937 27.0417C39.3164 27.0417 38.927 27.0417 38.6018 26.9658C38.1509 26.8608 37.7315 26.65 37.3782 26.3507C37.025 26.0515 36.7481 25.6725 36.5703 25.245C36.4405 24.9358 36.3778 24.5596 36.2539 23.8115C36.2189 23.6015 36.2014 23.4965 36.1809 23.4688C36.1674 23.4501 36.1497 23.4349 36.1291 23.4244C36.1086 23.4139 36.0859 23.4084 36.0628 23.4084C36.0398 23.4084 36.017 23.4139 35.9965 23.4244C35.976 23.4349 35.9582 23.4501 35.9447 23.4688C35.9243 23.4965 35.9068 23.6 35.8718 23.8115L35.7537 24.5246C35.6589 25.2112 35.3227 25.8416 34.8053 26.3028C34.288 26.7641 33.6233 27.026 32.9303 27.0417H32.6328C31.9399 27.026 31.2752 26.7641 30.7578 26.3028C30.2405 25.8416 29.9043 25.2112 29.8095 24.5246L29.6914 23.81C29.6564 23.6015 29.6389 23.4965 29.6184 23.4688C29.6049 23.4501 29.5872 23.4349 29.5666 23.4244C29.5461 23.4139 29.5234 23.4084 29.5003 23.4084C29.4773 23.4084 29.4545 23.4139 29.434 23.4244C29.4135 23.4349 29.3957 23.4501 29.3822 23.4688C29.3618 23.4965 29.3443 23.6 29.3093 23.8115L29.1912 24.5246C29.0964 25.2112 28.7602 25.8416 28.2428 26.3028C27.7255 26.7641 27.0608 27.026 26.3678 27.0417H26.0703C25.4032 27.026 24.7616 26.7821 24.2525 26.3506C23.7435 25.919 23.3978 25.326 23.2732 24.6704C23.2627 24.6221 23.254 24.5735 23.247 24.5246L23.1289 23.81C23.0939 23.6015 23.0764 23.4965 23.0559 23.4688C23.0424 23.4501 23.0247 23.4349 23.0041 23.4244C22.9836 23.4139 22.9609 23.4084 22.9378 23.4084C22.9148 23.4084 22.892 23.4139 22.8715 23.4244C22.851 23.4349 22.8332 23.4501 22.8197 23.4688C22.7993 23.4965 22.7818 23.6 22.7468 23.8115C22.6228 24.561 22.5601 24.9344 22.4303 25.245C22.2527 25.6723 21.976 26.0512 21.623 26.3504C21.27 26.6497 20.8509 26.8606 20.4003 26.9658C20.0737 27.0417 19.6857 27.0417 18.907 27.0417C18.3105 27.0417 18.013 27.0417 17.7943 26.9702C17.5171 26.8806 17.2732 26.7101 17.0938 26.4805C16.9145 26.251 16.808 25.9731 16.788 25.6825C16.7734 25.4521 16.8434 25.1706 16.9849 24.6048L18.7393 17.5844Z" fill="#B3B3B3"/>
<path fill-rule="evenodd" clip-rule="evenodd" d="M19.3168 29.2293C19.292 29.8433 19.292 30.5637 19.292 31.4168V40.1668C19.292 41.542 19.292 42.2289 19.7193 42.6562C20.1466 43.0835 20.8335 43.0835 22.2087 43.0835H26.5837V37.2502C26.5837 36.8634 26.7373 36.4925 27.0108 36.219C27.2843 35.9455 27.6552 35.7918 28.042 35.7918H30.9587C31.3454 35.7918 31.7164 35.9455 31.9899 36.219C32.2633 36.4925 32.417 36.8634 32.417 37.2502V43.0835H36.792C38.1672 43.0835 38.8541 43.0835 39.2814 42.6562C39.7087 42.2289 39.7087 41.542 39.7087 40.1668V31.4168C39.7087 30.5637 39.7087 29.8433 39.6839 29.2293C39.1516 29.2293 38.6076 29.2133 38.1045 29.0966C37.3579 28.9227 36.66 28.5827 36.0628 28.102C35.2112 28.7875 34.1378 29.2016 32.9814 29.2279L32.7976 29.2293H32.5818C31.4582 29.2033 30.3748 28.8065 29.5003 28.1006C28.6487 28.786 27.5753 29.2002 26.4189 29.2264L26.2351 29.2279H26.0193C24.8959 29.2023 23.8125 28.8059 22.9378 28.1006C22.3487 28.5745 21.6545 28.9173 20.8962 29.0952C20.393 29.2118 19.8491 29.2264 19.3168 29.2279" fill="#B3B3B3"/>
</svg>
