<svg width="59" height="59" viewBox="0 0 59 59" fill="none" xmlns="http://www.w3.org/2000/svg">
<circle cx="29.5" cy="29.5" r="28.5" stroke="#B3B3B3" stroke-width="2"/>
<path opacity="0.4" d="M35.706 15H40.446C42.4091 15 43.9997 16.6042 43.9997 18.5839V23.3643C43.9997 25.3441 42.4091 26.9483 40.446 26.9483H35.706C33.743 26.9483 32.1523 25.3441 32.1523 23.3643V18.5839C32.1523 16.6042 33.743 15 35.706 15Z" fill="#B3B3B3"/>
<path d="M24.2937 31.0517C26.2567 31.0517 27.8473 32.6559 27.8473 34.6357V39.4161C27.8473 41.3945 26.2567 43 24.2937 43H19.5537C17.5906 43 16 41.3945 16 39.4161V34.6357C16 32.6559 17.5906 31.0517 19.5537 31.0517H24.2937ZM40.4443 31.0517C42.4073 31.0517 43.9979 32.6559 43.9979 34.6357V39.4161C43.9979 41.3945 42.4073 43 40.4443 43H35.7043C33.7412 43 32.1506 41.3945 32.1506 39.4161V34.6357C32.1506 32.6559 33.7412 31.0517 35.7043 31.0517H40.4443ZM24.2937 15C26.2567 15 27.8473 16.6042 27.8473 18.5839V23.3643C27.8473 25.3441 26.2567 26.9483 24.2937 26.9483H19.5537C17.5906 26.9483 16 25.3441 16 23.3643V18.5839C16 16.6042 17.5906 15 19.5537 15H24.2937Z" fill="#B3B3B3"/>
</svg>
